<?xml version="1.0" encoding="UTF-8"?>
<svg id="Layer_1" data-name="Layer 1" xmlns="http://www.w3.org/2000/svg" viewBox="0 0 29.93 40.16">
  <defs>
    <style>
      .cls-1 {
        fill: coral;
      }
    </style>
  </defs>
  <path class="cls-1" d="M19.27,17.77c-.73,.35-2.2,.7-4.08,.7-4.35,0-7.63-2.64-7.63-7.5S10.85,3.18,15.63,3.18c1.92,0,3.14,.4,3.66,.66l-.48,1.56c-.76-.35-1.83-.62-3.12-.62-3.62,0-6.02,2.22-6.02,6.12,0,3.63,2.18,5.96,5.93,5.96,1.21,0,2.45-.24,3.25-.62l.41,1.52Z"/>
  <g>
    <path class="cls-1" d="M4.49,19.28c.03,.72-.55,1.3-1.47,1.3-.81,0-1.39-.58-1.39-1.3s.6-1.32,1.44-1.32,1.42,.58,1.42,1.32Zm-2.57,14.88v-11.62h2.31v11.62H1.92Z"/>
    <path class="cls-1" d="M26.65,19.28c.03,.72-.55,1.3-1.47,1.3-.81,0-1.39-.58-1.39-1.3s.6-1.32,1.44-1.32,1.42,.58,1.42,1.32Zm-2.57,14.88v-11.62h2.31v11.62h-2.31Z"/>
  </g>
  <path class="cls-1" d="M12.85,33.79l-5.34-14.83h2.28l2.55,7.3c.7,2,1.31,3.81,1.75,5.54h.05c.46-1.72,1.14-3.59,1.87-5.52l2.77-7.33h2.26l-5.85,14.83h-2.33Z"/>
</svg>