<?xml version="1.0" encoding="UTF-8"?>
<svg id="Layer_1" data-name="Layer 1" xmlns="http://www.w3.org/2000/svg" viewBox="0 0 45 59.71">
  <defs>
    <style>
      .cls-1 {
        fill: #fff;
      }

      .cls-1, .cls-2 {
        stroke: #000;
        stroke-miterlimit: 10;
      }

      .cls-2 {
        fill: none;
      }
    </style>
  </defs>
  <line class="cls-1" x1=".5" y1="40.21" x2="44.5" y2="40.21"/>
  <g>
    <path d="M10.04,44.38c.7-.12,1.62-.22,2.8-.22,1.44,0,2.49,.33,3.16,.94,.62,.54,.99,1.36,.99,2.36s-.3,1.83-.87,2.41c-.77,.82-2.03,1.24-3.45,1.24-.44,0-.84-.02-1.17-.1v4.52h-1.46v-11.15Zm1.46,5.44c.32,.08,.72,.12,1.21,.12,1.76,0,2.83-.85,2.83-2.41s-1.05-2.21-2.66-2.21c-.64,0-1.12,.05-1.37,.12v4.39Z"/>
    <path d="M18.95,44.4c.89-.13,1.94-.23,3.1-.23,2.09,0,3.58,.49,4.57,1.41,1,.92,1.59,2.23,1.59,4.05s-.57,3.35-1.62,4.39c-1.05,1.05-2.8,1.62-4.99,1.62-1.04,0-1.91-.05-2.65-.13v-11.1Zm1.46,9.98c.37,.07,.9,.08,1.47,.08,3.11,0,4.8-1.74,4.8-4.79,.02-2.66-1.49-4.35-4.57-4.35-.75,0-1.32,.07-1.71,.15v8.91Z"/>
    <path d="M30.1,44.25h6.08v1.22h-4.62v3.75h4.27v1.21h-4.27v5.11h-1.46v-11.28Z"/>
  </g>
  <polygon points="22.5 38.71 32.5 28.71 12.5 28.71 22.5 38.71"/>
  <rect x="17.5" y="4.71" width="10" height="24"/>
  <path class="cls-2" d="M30.5,.71V13.71h13.48"/>
  <path class="cls-2" d="M44.5,13.84V59.21H.5V.5H30.63l13.87,13.34Z"/>
  <polygon points="30.75 13.96 44.5 13.71 31 .21 30.75 13.96"/>
</svg>